<svg xmlns="http://www.w3.org/2000/svg" version="1.1" viewBox="0 0 316 247">

















<path fill="#000000" d="   M 201.00 116.79   L 201.04 117.75   Q 200.33 119.65 199.18 120.16   Q 183.11 127.20 167.30 134.70   A 1.11 1.11 0.0 0 1 166.36 134.70   L 134.73 119.90   A 2.12 2.12 0.0 0 1 133.51 117.98   Q 133.49 100.91 133.50 83.71   C 133.50 82.43 132.93 81.13 133.70 79.53   A 1.49 1.47 -89.2 0 1 134.40 78.84   L 166.12 64.06   A 1.40 1.39 -45.2 0 1 167.28 64.05   L 199.26 78.66   A 2.35 2.33 12.9 0 1 200.63 80.83   Q 200.37 96.95 200.54 113.50   Q 200.57 115.98 201.00 116.79   Z   M 190.06 81.27   A 0.32 0.32 0.0 0 0 190.07 80.69   L 166.86 70.16   A 0.32 0.32 0.0 0 0 166.60 70.16   L 143.85 80.65   A 0.32 0.32 0.0 0 0 143.85 81.23   L 166.58 91.72   A 0.32 0.32 0.0 0 0 166.84 91.72   L 190.06 81.27   Z   M 170.00 96.93   A 0.41 0.41 0.0 0 0 169.76 97.30   L 169.74 126.54   A 0.41 0.41 0.0 0 0 170.32 126.92   L 194.51 115.92   A 0.41 0.41 0.0 0 0 194.75 115.55   L 194.75 86.31   A 0.41 0.41 0.0 0 0 194.17 85.93   L 170.00 96.93   Z"/>



<path fill="#ffffff" d="   M 190.06 81.27   L 166.84 91.72   A 0.32 0.32 0.0 0 1 166.58 91.72   L 143.85 81.23   A 0.32 0.32 0.0 0 1 143.85 80.65   L 166.60 70.16   A 0.32 0.32 0.0 0 1 166.86 70.16   L 190.07 80.69   A 0.32 0.32 0.0 0 1 190.06 81.27   Z"/>







<path fill="#ffffff" d="   M 170.00 96.93   L 194.17 85.93   A 0.41 0.41 0.0 0 1 194.75 86.31   L 194.75 115.55   A 0.41 0.41 0.0 0 1 194.51 115.92   L 170.32 126.92   A 0.41 0.41 0.0 0 1 169.74 126.54   L 169.76 97.30   A 0.41 0.41 0.0 0 1 170.00 96.93   Z"/>









<path fill="#000000" d="   M 265.79 161.25   L 265.79 165.00   L 265.71 166.50   Q 263.69 174.86 255.33 175.64   L 250.29 175.00   L 249.00 174.29   L 246.30 172.03   Q 245.74 171.56 245.74 172.29   L 245.75 174.83   A 0.62 0.62 0.0 0 1 245.17 175.45   L 242.11 175.69   A 0.57 0.56 87.7 0 1 241.50 175.12   L 241.50 142.87   A 0.62 0.62 0.0 0 1 242.13 142.25   L 245.13 142.25   A 0.63 0.62 -90.0 0 1 245.75 142.88   L 245.75 155.72   Q 245.75 156.27 246.09 155.84   C 252.33 147.90 263.62 152.00 265.79 161.25   Z   M 253.5184 171.9694   A 8.32 7.97 90.7 0 0 261.5894 163.7474   A 8.32 7.97 90.7 0 0 253.7216 155.3306   A 8.32 7.97 90.7 0 0 245.6506 163.5526   A 8.32 7.97 90.7 0 0 253.5184 171.9694   Z"/>
<path fill="#000000" d="   M 196.83 171.75   L 209.92 171.75   A 0.33 0.33 0.0 0 1 210.25 172.08   L 210.25 175.17   A 0.33 0.33 0.0 0 1 209.92 175.50   L 192.57 175.50   A 0.33 0.33 0.0 0 1 192.24 175.17   L 192.25 144.57   A 0.33 0.33 0.0 0 1 192.58 144.24   L 196.17 144.25   A 0.33 0.33 0.0 0 1 196.50 144.58   L 196.50 171.42   A 0.33 0.33 0.0 0 0 196.83 171.75   Z"/>
<path fill="#000000" d="   M 174.75 152.25   L 174.75 146.87   A 0.62 0.62 0.0 0 1 175.37 146.25   L 178.50 146.25   A 0.50 0.50 0.0 0 1 179.00 146.75   L 179.00 152.12   A 0.63 0.62 90.0 0 0 179.62 152.75   L 185.75 152.75   A 0.50 0.50 0.0 0 1 186.25 153.25   L 186.25 155.39   A 0.64 0.63 -89.6 0 1 185.61 156.03   L 179.63 155.94   A 0.53 0.53 0.0 0 0 179.09 156.46   Q 178.91 162.51 179.01 168.51   C 179.09 172.53 182.50 171.75 185.09 171.07   A 0.63 0.62 73.1 0 1 185.84 171.48   L 186.48 173.42   A 0.70 0.70 0.0 0 1 186.18 174.24   C 182.36 176.55 175.11 176.27 174.89 170.31   Q 174.63 163.30 174.76 156.27   A 0.48 0.48 0.0 0 0 174.23 155.78   L 172.27 155.98   A 0.71 0.71 0.0 0 1 171.49 155.27   L 171.50 153.25   A 0.50 0.50 0.0 0 1 172.00 152.76   L 174.25 152.75   A 0.51 0.50 -0.6 0 0 174.75 152.25   Z"/>
<path fill="#000000" d="   M 72.65 166.00   C 74.24 172.86 82.20 173.96 87.08 169.73   A 0.64 0.63 48.6 0 1 87.97 169.79   L 89.37 171.38   A 0.71 0.70 51.1 0 1 89.27 172.41   Q 84.49 175.98 79.14 175.60   C 64.02 174.53 64.86 152.16 79.49 151.77   C 87.47 151.56 91.75 157.22 91.14 164.91   A 0.63 0.63 0.0 0 1 90.51 165.50   L 73.05 165.50   A 0.41 0.41 0.0 0 0 72.65 166.00   Z   M 87.21 161.54   C 87.16 159.46 85.39 156.40 83.18 155.83   Q 74.79 153.64 72.41 161.50   A 0.38 0.38 0.0 0 0 72.77 161.99   L 86.75 162.01   A 0.46 0.46 0.0 0 0 87.21 161.54   Z"/>
<path fill="#000000" d="   M 103.97 170.55   L 110.66 152.01   A 0.34 0.34 0.0 0 1 110.97 151.79   L 114.51 151.73   A 0.34 0.34 0.0 0 1 114.84 152.19   L 105.81 175.46   A 0.34 0.34 0.0 0 1 105.47 175.68   L 101.52 175.44   A 0.34 0.34 0.0 0 1 101.22 175.23   L 92.23 152.24   A 0.34 0.34 0.0 0 1 92.54 151.77   L 96.28 151.73   A 0.34 0.34 0.0 0 1 96.60 151.96   L 103.33 170.56   A 0.34 0.34 0.0 0 0 103.97 170.55   Z"/>
<path fill="#000000" d="   M 135.74 170.05   L 136.97 171.36   A 0.60 0.60 0.0 0 1 136.93 172.23   Q 132.18 176.38 125.76 175.48   C 114.36 173.87 112.21 158.75 121.31 153.31   C 130.04 148.09 139.77 154.76 138.65 164.91   A 0.58 0.58 0.0 0 1 138.07 165.42   L 120.42 165.48   A 0.42 0.42 0.0 0 0 120.03 166.04   C 122.79 174.00 128.89 172.84 134.89 169.90   A 0.73 0.72 55.0 0 1 135.74 170.05   Z   M 131.81 156.44   Q 123.19 152.26 120.06 161.34   A 0.49 0.48 -80.3 0 0 120.51 161.98   L 134.30 162.05   A 0.53 0.53 0.0 0 0 134.83 161.49   Q 134.63 157.80 131.81 156.44   Z"/>
<path fill="#000000" d="   M 148.49 155.87   A 0.26 0.25 65.3 0 0 148.94 156.04   C 154.69 148.87 166.28 150.36 166.47 161.25   Q 166.59 168.13 166.42 175.03   A 0.47 0.46 89.4 0 1 165.98 175.49   L 162.82 175.65   A 0.48 0.48 0.0 0 1 162.32 175.18   C 162.25 171.27 163.31 159.74 160.53 157.29   C 157.35 154.50 152.30 155.60 150.06 158.82   C 147.75 162.15 148.74 170.74 148.74 174.85   A 0.62 0.62 0.0 0 1 148.14 175.47   L 144.74 175.61   A 0.25 0.25 0.0 0 1 144.48 175.36   L 144.51 152.36   A 0.62 0.62 0.0 0 1 145.14 151.74   L 147.95 151.78   A 0.65 0.65 0.0 0 1 148.59 152.45   L 148.49 155.87   Z"/>
<path fill="#000000" d="   M 229.32 173.08   C 225.21 176.09 215.61 177.50 213.73 170.98   C 210.75 160.68 223.02 161.44 229.11 161.41   A 0.53 0.53 0.0 0 0 229.64 160.91   C 230.08 153.46 220.84 154.77 216.82 157.50   A 0.53 0.53 0.0 0 1 216.07 157.34   L 214.87 155.40   A 0.67 0.67 0.0 0 1 215.09 154.47   C 219.93 151.50 228.76 149.85 232.46 155.39   C 234.89 159.02 233.75 170.29 233.80 174.90   A 0.64 0.64 0.0 0 1 233.14 175.55   L 230.36 175.48   A 0.62 0.61 -89.5 0 1 229.76 174.86   L 229.76 173.30   Q 229.76 172.77 229.32 173.08   Z   M 217.24 167.73   C 216.53 174.02 229.66 174.20 229.62 165.39   A 0.55 0.55 0.0 0 0 229.11 164.84   C 226.62 164.63 217.67 163.97 217.24 167.73   Z"/>


































<path fill="#ffffff" d="   M 316.00 228.56   L 316.00 237.06   C 314.56 234.12 312.84 231.32 316.00 228.56   Z"/>

</svg>